/vscmnt/brussel_pixiu_data/_data_brussel/112/vsc11236/PredSimResults/SUBJ07opt3D/weighted-LRposFixed/expIG/worker_04.mot
version=1
nRows=4
nColumns=50
inDegrees=yes
endheader
                time	         pelvis_tilt	         pelvis_list	     pelvis_rotation	           pelvis_tx	           pelvis_ty	           pelvis_tz	       hip_flexion_r	     hip_adduction_r	      hip_rotation_r	        knee_angle_r	       ankle_angle_r	         mtp_angle_r	       hip_flexion_l	     hip_adduction_l	      hip_rotation_l	        knee_angle_l	       ankle_angle_l	         mtp_angle_l	    lumbar_extension	      lumbar_bending	     lumbar_rotation	 ercspn_r/activation	 intobl_r/activation	 extobl_r/activation	    abd_r/activation	    add_r/activation	hamstrings_r/activation	bifemsh_r/activation	glut_max_r/activation	iliopsoas_r/activation	rect_fem_r/activation	  vasti_r/activation	gastroc_r/activation	 soleus_r/activation	tib_ant_r/activation	 ercspn_l/activation	 intobl_l/activation	 extobl_l/activation	    abd_l/activation	    add_l/activation	hamstrings_l/activation	bifemsh_l/activation	glut_max_l/activation	iliopsoas_l/activation	rect_fem_l/activation	  vasti_l/activation	gastroc_l/activation	 soleus_l/activation	tib_ant_l/activation	
          0.00000000	         -4.26130520	         -0.17721941	          9.67360292	          0.00000000	          0.84739677	         -0.01512269	         31.09140719	         -3.06867001	         -6.25031790	         -7.51297675	          2.96443293	          0.26924857	        -14.11956579	         -0.00483326	          5.67540684	         -8.42101947	          9.01772833	         28.16074063	        -12.34216011	         -1.53766749	         -1.50261155	          0.13217575	          0.14465118	          0.01000000	          0.01796424	          0.14797766	          0.09508465	          0.12849502	          0.06085078	          0.05472812	          0.01000000	          0.00999999	          0.01000000	          0.00999999	          0.43488340	          0.09493658	          0.00999999	          0.01000000	          0.03656677	          0.03540900	          0.01448357	          0.18374313	          0.02339400	          0.33387284	          0.01000002	          0.01000000	          0.20118534	          0.33998800	          0.01935566	
          0.01111681	         -4.25104169	         -0.12231994	          9.73776840	          0.01635672	          0.84552138	         -0.01459685	         31.20734503	         -2.86472328	         -6.07549999	         -9.48481308	          2.55011943	          0.26568033	        -14.78226609	         -0.12370239	          5.38829205	         -9.21563415	          8.10996063	         29.78740101	        -12.17541238	         -1.19710895	         -1.70235889	          0.11847821	          0.12203966	          0.01000000	          0.01515611	          0.19733092	          0.08022125	          0.10840901	          0.14273423	          0.04617315	          0.01000004	          0.01000000	          0.01404888	          0.01404887	          0.43959542	          0.11944346	          0.00999999	          0.01000000	          0.03085074	          0.08277810	          0.01508046	          0.15502091	          0.01973711	          0.50031007	          0.01185273	          0.01000003	          0.16973654	          0.32154558	          0.01633003	
          0.02223362	         -4.23301503	         -0.06060870	          9.75419529	          0.03296611	          0.84380631	         -0.01405282	         31.16516751	         -2.71319916	         -5.71826090	        -11.44205510	          2.18567389	          0.24694881	        -15.27620075	         -0.20918420	          5.06201139	        -10.36481923	          7.12139122	         31.39290935	        -11.99701087	         -0.85079258	         -1.89482390	          0.11729282	          0.11532868	          0.00999999	          0.05214983	          0.19342017	          0.07054465	          0.10224509	          0.18480923	          0.03895548	          0.01000000	          0.00999999	          0.01185279	          0.01185279	          0.51801721	          0.14612351	          0.00999999	          0.01000000	          0.02602823	          0.09616681	          0.01272336	          0.14205023	          0.01665185	          0.45965656	          0.01000002	          0.00999999	          0.14320373	          0.29875757	          0.01377736	
          0.03335042	         -4.21092764	          0.01849376	          9.71464907	          0.04964183	          0.84239089	         -0.01341587	         30.98419231	         -2.57332634	         -5.39655272	        -13.15615646	          1.77803766	          0.23037965	        -15.52945538	         -0.24825108	          4.69227455	        -11.95784667	          6.00517184	         32.95998142	        -11.82786556	         -0.52223367	         -2.07416876	          0.14524316	          0.09730078	          0.00999999	          0.10946918	          0.19825645	          0.06036582	          0.08626240	          0.21127999	          0.03286605	          0.01000000	          0.00999999	          0.01000000	          0.00999999	          0.56467425	          0.17377029	          0.00999999	          0.01000000	          0.02195956	          0.09139428	          0.01298491	          0.11984635	          0.01404888	          0.38780501	          0.01000005	          0.00999999	          0.12081847	          0.27450973	          0.01162372	
